<svg width="880" height="650" viewBox="0 0 880 650" fill="none" xmlns="http://www.w3.org/2000/svg">
<g filter="url(#filter0_f_297_117)">
<path fill-rule="evenodd" clip-rule="evenodd" d="M635.505 545.323L633.881 549.628L632.012 553.889L629.904 558.098L627.56 562.248L624.989 566.33L622.196 570.339L619.191 574.268L615.983 578.112L612.581 581.864L608.997 585.521L605.243 589.077L601.33 592.528L597.271 595.873L593.08 599.108L588.771 602.231L584.356 605.241L579.85 608.138L575.267 610.922L570.622 613.593L565.93 616.153L561.207 618.605L556.469 620.953L551.732 623.2L547.012 625.351L542.325 627.412L537.689 629.391L533.117 631.293L528.627 633.128L524.231 634.903L519.945 636.629L515.781 638.313L511.75 639.967L507.864 641.6L504.131 643.223L500.561 644.845L497.158 646.477L493.93 648.129L490.881 649.811L488.013 651.533L485.327 653.305L482.826 655.134L480.506 657.029L478.367 659L476.406 661.051L474.617 663.192L472.996 665.427L471.535 667.762L470.229 670.201L469.069 672.749L468.045 675.407L467.149 678.179L466.371 681.066L465.699 684.068L465.123 687.184L464.632 690.414L464.214 693.756L463.856 697.208L463.548 700.764L463.276 704.422L463.03 708.176L462.797 712.021L462.565 715.95L462.323 719.957L462.061 724.033L461.766 728.172L461.43 732.364L461.041 736.602L460.591 740.875L460.071 745.174L459.472 749.491L458.786 753.814L458.008 758.135L457.131 762.443L456.148 766.729L455.056 770.983L453.851 775.196L452.528 779.358L451.086 783.461L449.523 787.496L447.838 791.456L446.029 795.333L444.099 799.12L442.048 802.812L439.877 806.403L437.589 809.889L435.188 813.266L432.676 816.53L430.057 819.681L427.336 822.717L424.518 825.637L421.608 828.443L418.61 831.136L415.531 833.718L412.376 836.193L409.151 838.565L405.86 840.837L402.51 843.016L399.106 845.106L395.651 847.112L392.152 849.042L388.611 850.898L385.032 852.688L381.419 854.416L377.775 856.086L374.101 857.704L370.402 859.277L366.679 860.81L362.934 862.31L359.169 863.781L355.385 865.231L351.582 866.662L347.761 868.079L343.922 869.484L340.065 870.878L336.188 872.266L332.292 873.647L328.376 875.024L324.438 876.398L320.479 877.77L316.497 879.139L312.49 880.506L308.459 881.868L304.401 883.225L300.315 884.574L296.201 885.911L292.057 887.233L287.884 888.536L283.679 889.814L279.444 891.064L275.178 892.278L270.881 893.451L266.553 894.577L262.196 895.65L257.811 896.661L253.398 897.605L248.961 898.475L244.5 899.265L240.019 899.967L235.519 900.575L231.004 901.082L226.478 901.484L221.943 901.774L217.403 901.948L212.862 902L208.325 901.926L203.794 901.723L199.275 901.386L194.772 900.914L190.289 900.304L185.831 899.554L181.401 898.663L177.004 897.631L172.645 896.456L168.328 895.14L164.056 893.684L159.833 892.088L155.663 890.354L151.55 888.486L147.497 886.484L143.507 884.352L139.583 882.094L135.727 879.712L131.943 877.212L128.231 874.596L124.594 871.87L121.035 869.038L117.553 866.104L114.15 863.074L110.828 859.952L107.586 856.744L104.425 853.454L101.346 850.089L98.3473 846.652L95.4294 843.15L92.5916 839.587L89.8329 835.969L87.1524 832.301L84.5487 828.588L82.0205 824.834L79.5662 821.045L77.1839 817.225L74.8719 813.378L72.6283 809.509L70.451 805.621L68.3382 801.719L66.2879 797.804L64.2986 793.881L62.3684 789.952L60.4956 786.019L58.6777 782.085L56.9115 778.154L55.1931 774.23L53.518 770.317L51.8806 766.42L50.2749 762.544L48.6939 758.694L47.1299 754.875L45.5743 751.092L44.0182 747.352L42.4528 743.657L40.8689 740.013L39.2577 736.423L37.6103 732.889L35.9182 729.414L34.173 725.998L32.367 722.643L30.493 719.348L28.5444 716.113L26.5152 712.935L24.4006 709.812L22.1963 706.741L19.899 703.718L17.5066 700.739L15.0179 697.798L12.4327 694.89L9.75215 692.01L6.97837 689.15L4.11465 686.303L1.1654 683.463L-1.86382 680.623L-4.96635 677.776L-8.13451 674.913L-11.3596 672.029L-14.6318 669.115L-17.9407 666.165L-21.2749 663.173L-24.6221 660.133L-27.9695 657.038L-31.3038 653.884L-34.6111 650.665L-37.8771 647.379L-41.0874 644.021L-44.2274 640.589L-47.2822 637.081L-50.2374 633.495L-53.0783 629.832L-55.7909 626.09L-58.3614 622.272L-60.7764 618.379L-63.0231 614.413L-65.0895 610.378L-66.9642 606.277L-68.6368 602.115L-70.0976 597.897L-71.3379 593.629L-72.3501 589.316L-73.1274 584.965L-73.6643 580.583L-73.9563 576.177L-74 571.755L-73.793 567.325L-73.3341 562.894L-72.6232 558.47L-71.661 554.062L-70.4495 549.677L-68.9915 545.323L-67.2907 541.007L-65.3518 536.739L-63.1802 532.523L-60.7822 528.369L-58.1646 524.282L-55.3351 520.269L-52.3018 516.336L-49.0737 512.489L-45.6599 508.732L-42.0704 505.071L-38.3156 501.51L-34.4063 498.052L-30.354 494.701L-26.1706 491.459L-21.8687 488.329L-17.4617 485.311L-12.9634 482.407L-8.38783 479.616L-3.74873 476.937L0.940613 474.37L5.66728 471.912L10.4188 469.562L15.1828 467.316L19.9475 465.173L24.701 463.127L29.4319 461.176L34.1287 459.313L38.7804 457.535L43.3762 455.835L47.9054 454.207L52.3577 452.645L56.723 451.141L60.9917 449.688L65.1546 448.279L69.2034 446.904L73.1303 445.557L76.9284 444.228L80.5914 442.908L84.1143 441.59L87.4927 440.265L90.7232 438.925L93.8035 437.561L96.732 436.165L99.5083 434.731L102.133 433.251L104.608 431.718L106.934 430.125L109.117 428.468L111.158 426.742L113.065 424.941L114.842 423.062L116.495 421.102L118.032 419.058L119.461 416.929L120.79 414.714L122.027 412.413L123.181 410.026L124.262 407.555L125.28 405.001L126.243 402.368L127.163 399.658L128.049 396.877L128.91 394.028L129.757 391.116L130.599 388.149L131.445 385.131L132.305 382.07L133.186 378.973L134.098 375.847L135.048 372.699L136.042 369.539L137.089 366.373L138.195 363.21L139.364 360.058L140.602 356.925L141.913 353.82L143.301 350.749L144.769 347.722L146.32 344.744L147.956 341.824L149.678 338.968L151.487 336.183L153.383 333.475L155.366 330.849L157.434 328.311L159.587 325.865L161.823 323.516L164.14 321.268L166.535 319.123L169.005 317.085L171.548 315.155L174.16 313.336L176.836 311.628L179.574 310.032L182.369 308.548L185.217 307.175L188.114 305.913L191.054 304.758L194.035 303.71L197.05 302.763L200.095 301.914L203.167 301.158L206.259 300.489L209.368 299.9L212.49 299.385L215.62 298.935L218.755 298.541L221.891 298.193L225.024 297.882L228.154 297.599L231.276 297.334L234.391 297.079L237.498 296.826L240.595 296.565L243.683 296.291L246.763 295.993L249.834 295.665L252.898 295.299L255.958 294.887L259.013 294.423L262.068 293.901L265.124 293.314L268.185 292.657L271.254 291.925L274.333 291.114L277.428 290.221L280.542 289.242L283.679 288.178L286.843 287.025L290.039 285.785L293.27 284.459L296.54 283.047L299.854 281.554L303.216 279.982L306.628 278.337L310.095 276.623L313.619 274.848L317.203 273.019L320.849 271.143L324.558 269.231L328.333 267.29L332.173 265.332L336.079 263.367L340.05 261.406L344.085 259.461L348.183 257.543L352.342 255.666L356.557 253.84L360.827 252.078L365.147 250.393L369.512 248.796L373.918 247.298L378.357 245.912L382.826 244.648L387.316 243.516L391.822 242.526L396.336 241.688L400.85 241.009L405.357 240.497L409.85 240.158L414.319 240L418.759 240.026L423.16 240.241L427.515 240.647L431.817 241.246L436.058 242.04L440.231 243.029L444.33 244.211L448.349 245.586L452.281 247.15L456.122 248.9L459.866 250.831L463.509 252.939L467.048 255.218L470.479 257.661L473.8 260.262L477.01 263.012L480.106 265.904L483.088 268.93L485.956 272.081L488.712 275.347L491.355 278.72L493.889 282.19L496.315 285.747L498.637 289.383L500.859 293.086L502.985 296.848L505.021 300.659L506.972 304.508L508.845 308.388L510.646 312.286L512.385 316.195L514.07 320.104L515.709 324.005L517.312 327.889L518.889 331.748L520.448 335.577L521.998 339.368L523.549 343.118L525.108 346.821L526.687 350.474L528.292 354.073L529.934 357.614L531.621 361.097L533.362 364.519L535.163 367.881L537.032 371.182L538.976 374.424L541 377.609L543.107 380.739L545.303 383.818L547.589 386.85L549.967 389.839L552.437 392.792L554.999 395.714L557.652 398.611L560.392 401.49L563.215 404.357L566.118 407.219L569.093 410.083L572.135 412.956L575.236 415.846L578.387 418.759L581.578 421.701L584.801 424.679L588.044 427.699L591.297 430.767L594.546 433.887L597.781 437.065L600.988 440.305L604.155 443.609L607.268 446.982L610.315 450.425L613.282 453.941L616.156 457.53L618.924 461.193L621.572 464.93L624.089 468.74L626.461 472.621L628.677 476.572L630.725 480.589L632.594 484.668L634.274 488.807L635.755 493.001L637.027 497.244L638.083 501.53L638.914 505.855L639.515 510.211L639.878 514.592L640 518.99L639.876 523.399L639.504 527.81L638.881 532.216L638.006 536.608L636.881 540.98L635.505 545.323Z" fill="url(#paint0_linear_297_117)"/>
</g>
<defs>
<filter id="filter0_f_297_117" x="-314" y="0" width="1194" height="1142" filterUnits="userSpaceOnUse" color-interpolation-filters="sRGB">
<feFlood flood-opacity="0" result="BackgroundImageFix"/>
<feBlend mode="normal" in="SourceGraphic" in2="BackgroundImageFix" result="shape"/>
<feGaussianBlur stdDeviation="120" result="effect1_foregroundBlur_297_117"/>
</filter>
<linearGradient id="paint0_linear_297_117" x1="602.5" y1="240" x2="-60.9855" y2="764.398" gradientUnits="userSpaceOnUse">
<stop offset="0.382167" stop-color="#4242CD"/>
<stop offset="0.763321" stop-color="#FB7375"/>
</linearGradient>
</defs>
</svg>
